<svg xmlns="http://www.w3.org/2000/svg" viewBox="0 0 400 300" aria-hidden="true">
  <rect width="400" height="300" fill="#fdf3ec"/>
  <circle cx="90" cy="80" r="100" fill="#f2d5c0" opacity=".7"/>
  <rect x="70" y="150" width="210" height="16" rx="3" fill="#1a4064"/>
  <rect x="70" y="214" width="210" height="16" rx="3" fill="#1a4064"/>
  <rect x="80" y="166" width="10" height="64" fill="#1a4064"/>
  <rect x="260" y="166" width="10" height="64" fill="#1a4064"/>
  <g>
    <g transform="translate(104 0)">
      <rect x="0" y="84" width="26" height="150" rx="13" fill="#fff" stroke="#cbc7bc" stroke-width="3"/>
      <path d="M3 170 H23 V221 A10 10 0 0 1 3 221Z" fill="#a8551f"/>
      <rect x="-3" y="74" width="32" height="20" rx="4" fill="#a8551f"/>
    </g>
    <g transform="translate(150 0)">
      <rect x="0" y="84" width="26" height="150" rx="13" fill="#fff" stroke="#cbc7bc" stroke-width="3"/>
      <path d="M3 140 H23 V221 A10 10 0 0 1 3 221Z" fill="#7a3c13"/>
      <rect x="-3" y="74" width="32" height="20" rx="4" fill="#4f80ad"/>
    </g>
    <g transform="translate(196 0)">
      <rect x="0" y="84" width="26" height="150" rx="13" fill="#fff" stroke="#cbc7bc" stroke-width="3"/>
      <path d="M3 182 H23 V221 A10 10 0 0 1 3 221Z" fill="#e9c46a"/>
      <rect x="-3" y="74" width="32" height="20" rx="4" fill="#e9c46a"/>
    </g>
  </g>
  <g transform="translate(296 92)">
    <path d="M0 0 L34 0 L34 10 L30 10 L30 56 L66 128 A10 10 0 0 1 57 142 L-23 142 A10 10 0 0 1 -32 128 L4 56 L4 10 L0 10Z" fill="#fff" stroke="#1a4064" stroke-width="4" stroke-linejoin="round"/>
    <path d="M-12 100 L46 100 L62 132 A4 4 0 0 1 58 138 L-24 138 A4 4 0 0 1 -28 132Z" fill="#b3cae1"/>
    <circle cx="10" cy="118" r="5" fill="#fff" opacity=".8"/>
    <circle cx="26" cy="110" r="3" fill="#fff" opacity=".8"/>
  </g>
  <path d="M48 70 C48 70 32 90 32 100 A16 16 0 0 0 64 100 C64 90 48 70 48 70Z" fill="#a8551f"/>
  <rect y="262" width="400" height="38" fill="#f2d5c0"/>
</svg>
